<svg width="42" height="42" viewBox="0 0 42 42" fill="none" xmlns="http://www.w3.org/2000/svg">
<circle cx="21" cy="21" r="21" fill="#F48E28"/>
<path d="M23.9381 15C24.9149 15.1906 25.8125 15.6683 26.5162 16.3719C27.2199 17.0756 27.6976 17.9733 27.8881 18.95L23.9381 15ZM23.9381 11C25.9674 11.2254 27.8597 12.1342 29.3044 13.577C30.749 15.0198 31.6601 16.911 31.8881 18.94L23.9381 11ZM30.8881 26.92V29.92C30.8892 30.1985 30.8322 30.4742 30.7206 30.7293C30.6091 30.9845 30.4454 31.2136 30.2402 31.4019C30.035 31.5901 29.7927 31.7335 29.5289 31.8227C29.265 31.9119 28.9855 31.9451 28.7081 31.92C25.631 31.5856 22.6751 30.5341 20.0781 28.85C17.6619 27.3147 15.6135 25.2662 14.0781 22.85C12.3881 20.2412 11.3364 17.271 11.0081 14.18C10.9831 13.9035 11.016 13.6248 11.1046 13.3616C11.1932 13.0985 11.3357 12.8567 11.5229 12.6516C11.7101 12.4466 11.9379 12.2827 12.1919 12.1705C12.4459 12.0583 12.7205 12.0003 12.9981 12H15.9981C16.4834 11.9952 16.9539 12.1671 17.3219 12.4835C17.6898 12.8 17.9302 13.2394 17.9981 13.72C18.1247 14.6801 18.3596 15.6227 18.6981 16.53C18.8327 16.8879 18.8618 17.2769 18.782 17.6509C18.7023 18.0248 18.517 18.3681 18.2481 18.64L16.9781 19.91C18.4017 22.4135 20.4746 24.4864 22.9781 25.91L24.2481 24.64C24.52 24.3711 24.8633 24.1858 25.2372 24.1061C25.6112 24.0263 26.0002 24.0555 26.3581 24.19C27.2654 24.5286 28.2081 24.7634 29.1681 24.89C29.6539 24.9585 30.0975 25.2032 30.4146 25.5775C30.7318 25.9518 30.9003 26.4296 30.8881 26.92Z" stroke="white" stroke-width="2" stroke-linecap="round" stroke-linejoin="round"/>
</svg>
