<svg width="42" height="42" viewBox="0 0 42 42" fill="none" xmlns="http://www.w3.org/2000/svg">
<circle cx="21" cy="21" r="21" fill="#F48E28"/>
<path d="M30 19C30 26 21 32 21 32C21 32 12 26 12 19C12 16.6131 12.9482 14.3239 14.636 12.636C16.3239 10.9482 18.6131 10 21 10C23.3869 10 25.6761 10.9482 27.364 12.636C29.0518 14.3239 30 16.6131 30 19Z" stroke="white" stroke-width="2" stroke-linecap="round" stroke-linejoin="round"/>
<path d="M21 22C22.6569 22 24 20.6569 24 19C24 17.3431 22.6569 16 21 16C19.3431 16 18 17.3431 18 19C18 20.6569 19.3431 22 21 22Z" stroke="white" stroke-width="2" stroke-linecap="round" stroke-linejoin="round"/>
</svg>
